<svg xmlns="http://www.w3.org/2000/svg" xmlns:xlink="http://www.w3.org/1999/xlink"><symbol id="icon-arrow-dw" viewBox="0 0 22 11"><g fill="none">
<path d="M21 1L11 10L1 1" stroke="#316DC2"/>
</g></symbol><symbol id="icon-arrow-tr" viewBox="0 0 22 22"><g fill="none">
<path id="Vector 21" d="M1 21L21 1M21 1H1.13245M21 1V20.8676" stroke="currentColor"/>
</g></symbol><symbol id="icon-arrow" viewBox="0 0 10 10"><g fill="none">
<path id="Vector 21" d="M1 9L9 1M9 1H1.05298M9 1V8.94702" stroke="currentColor"/>
</g></symbol><symbol id="icon-check" viewBox="0 0 22 20"><g fill="none">
<path id="Vector 28" d="M1 8.5L8.36842 19L21 1" stroke="#316DC2" stroke-linecap="round" stroke-linejoin="round"/>
</g></symbol><symbol id="icon-close" viewBox="0 0 20 20"><g fill="none">
<path id="Vector" d="M1 19L10 10M10 10L19 1M10 10L19 19M10 10L1 1" stroke="#316DC2" stroke-linecap="round" stroke-linejoin="round"/>
</g></symbol><symbol id="icon-logo" viewBox="0 0 28 28"><g fill="none">
<g id="Vector">
<path d="M0 27.8701V21.633H0.676259L3.51154 26.8782L6.33178 21.633H7.01806V27.8657H6.31676V23.0536L3.74697 27.8701H3.27109L0.706315 23.0536V27.8701H0Z" fill="#316DC2"/>
<path d="M18.2848 28C17.7805 28 17.3264 27.9278 16.9223 27.7834C16.5215 27.6362 16.1892 27.4283 15.9254 27.1597C15.6649 26.8912 15.4946 26.5721 15.4145 26.2025L16.1659 26.0942C16.2861 26.4985 16.5399 26.8161 16.9273 27.0471C17.3147 27.2752 17.7772 27.3893 18.3149 27.3893C18.6689 27.3893 18.9861 27.3416 19.2666 27.2464C19.5472 27.1482 19.7676 27.0096 19.9279 26.8305C20.0882 26.6515 20.1683 26.4393 20.1683 26.1938C20.1683 26.0321 20.1349 25.895 20.0681 25.7824C20.0013 25.6669 19.9128 25.5716 19.8026 25.4965C19.6924 25.4214 19.5722 25.3593 19.442 25.3103C19.3117 25.2583 19.1848 25.2164 19.0613 25.1846L17.2329 24.7125C17.0124 24.6577 16.8087 24.5884 16.6217 24.5046C16.4347 24.418 16.2711 24.3155 16.1308 24.1971C15.9939 24.0758 15.887 23.9343 15.8102 23.7726C15.7334 23.6109 15.695 23.4261 15.695 23.2182C15.695 22.8659 15.8019 22.5613 16.0156 22.3043C16.2293 22.0473 16.5215 21.8495 16.8922 21.7109C17.2629 21.5723 17.6854 21.5045 18.1596 21.5074C18.6405 21.5074 19.0696 21.581 19.447 21.7283C19.8277 21.8755 20.1416 22.0863 20.3887 22.3606C20.6359 22.6321 20.7995 22.954 20.8796 23.3265L20.1082 23.4478C20.0581 23.1764 19.9429 22.941 19.7626 22.7418C19.5822 22.5425 19.3518 22.3895 19.0713 22.2827C18.7941 22.1729 18.4885 22.1166 18.1546 22.1137C17.8306 22.1137 17.5418 22.1614 17.288 22.2567C17.0375 22.3491 16.8388 22.4761 16.6918 22.6378C16.5449 22.7995 16.4714 22.9843 16.4714 23.1922C16.4714 23.403 16.5382 23.5719 16.6718 23.699C16.8087 23.8261 16.9757 23.9257 17.1727 23.9979C17.3731 24.0701 17.5668 24.1292 17.7538 24.1754L19.1665 24.5349C19.3134 24.5696 19.4854 24.6201 19.6824 24.6865C19.8828 24.7501 20.0765 24.8425 20.2635 24.9637C20.4538 25.0821 20.6108 25.2381 20.7344 25.4315C20.8579 25.625 20.9197 25.8704 20.9197 26.1679C20.9197 26.4566 20.8529 26.715 20.7193 26.9432C20.5891 27.1713 20.4038 27.3633 20.1633 27.5192C19.9262 27.6751 19.6473 27.7935 19.3267 27.8744C19.0095 27.9581 18.6622 28 18.2848 28Z" fill="#316DC2"/>
<path fill-rule="evenodd" clip-rule="evenodd" d="M11.0087 21.633L8.52407 27.8701H9.29049L9.89298 26.3584H13.0974L13.7037 27.8701H14.4701L11.9855 21.633H11.0087ZM12.8576 25.7607L11.49 22.3514L10.1312 25.7607H9.63113V26.3584H9.89298L10.1312 25.7607H12.8576Z" fill="#316DC2"/>
<path d="M9.63113 25.7607V26.3584H9.89298L10.1312 25.7607H9.63113Z" fill="#316DC2"/>
<path fill-rule="evenodd" clip-rule="evenodd" d="M24.5386 21.633L22.0539 27.8701H22.8204L23.4229 26.3584H26.6272L27.2336 27.8701H28L25.5154 21.633H24.5386ZM26.3875 25.7607L25.0199 22.3514L23.6611 25.7607H23.161V26.3584H23.4229L23.6611 25.7607H26.3875Z" fill="#316DC2"/>
<path d="M23.161 25.7607V26.3584H23.4229L23.6611 25.7607H23.161Z" fill="#316DC2"/>
<path d="M5.81254 5.47597C5.29087 5.85346 4.98512 6.6529 5.56148 7.60874C6.13783 8.56458 14.372 15.0165 14.6739 15.1957C14.9758 15.375 15.2779 15.4048 16.0461 14.7775C16.8148 14.1502 23.2362 9.24971 23.4019 9.10231C23.6656 8.86779 23.7313 8.29579 23.4019 8.02685C23.4019 8.02685 15.6225 13.941 15.3677 14.1801C15.1132 14.4191 14.7169 14.0308 14.7913 13.5231C14.866 13.0152 14.921 12.9554 15.9091 12.1788C16.8972 11.4021 22.4993 7.08887 22.7535 6.89821C23.0414 6.68214 23.0483 6.30052 22.5768 5.96305C21.9214 5.49384 14.8379 0.376276 14.601 0.19713C14.3634 0.0178359 14.0345 -0.145063 13.5406 0.213377C13.0466 0.571818 6.77091 4.78227 5.81254 5.47597Z" fill="#316DC2"/>
<path d="M14.6739 15.8252C14.4757 15.7075 10.8629 12.8896 8.23872 10.6955V15.2702C8.23669 18.6096 17.4981 20.3938 20.5663 16.2887V11.9163C18.6815 13.3631 16.4767 15.0556 16.0461 15.407C15.2779 16.0342 14.9758 16.0044 14.6739 15.8252Z" fill="#316DC2"/>
<path d="M18.593 10.8091C18.593 10.8091 19.97 11.5124 20.068 14.3426L19.4009 14.1558L18.8671 15.3076C18.6413 12.2085 17.4116 11.7591 17.4116 11.7591L18.593 10.8091Z" fill="#98B8E6"/>
</g>
</g></symbol><symbol id="icon-menu" viewBox="0 0 22 12"><g fill="none">
<path id="Vector" d="M1 1H21M1 6H21M1 11H21" stroke="#316DC2" stroke-linecap="round"/>
</g></symbol><symbol id="icon-minus" viewBox="0 0 20 2"><g fill="none">
<path id="Vector 27" d="M0 1H10H20" stroke="#316DC2"/>
</g></symbol><symbol id="icon-ok" viewBox="0 0 14 22"><g fill="none">
<path d="M7 3.32798C8.32292 3.32798 9.39879 4.38262 9.39879 5.67944C9.39879 6.97235 8.32292 8.02699 7 8.02699C5.67708 8.02699 4.60121 6.97235 4.60121 5.67944C4.60121 4.38262 5.67708 3.32798 7 3.32798ZM7 11.355C10.1957 11.355 12.7938 8.8082 12.7938 5.67944C12.7938 2.54676 10.1957 0 7 0C3.80427 0 1.21023 2.54676 1.21023 5.67944C1.21023 8.8082 3.80427 11.355 7 11.355ZM9.343 15.9876C10.5225 15.722 11.6581 15.2649 12.7061 14.6204C13.499 14.1322 13.7381 13.1049 13.24 12.3276C12.738 11.5464 11.694 11.312 10.897 11.8042C8.52614 13.265 5.47386 13.265 3.09898 11.8042C2.30603 11.312 1.25805 11.5464 0.759964 12.3276C0.261876 13.1049 0.500958 14.1322 1.29391 14.6204C2.34189 15.2649 3.47753 15.722 4.657 15.9876L1.41744 19.1593C0.755978 19.8077 0.755978 20.8624 1.41744 21.5108C1.75215 21.835 2.1825 21.999 2.61683 21.999C3.05116 21.999 3.4855 21.835 3.82021 21.5108L7 18.3937L10.1838 21.5108C10.8452 22.1631 11.9171 22.1631 12.5826 21.5108C13.244 20.8624 13.244 19.8077 12.5826 19.1593L9.343 15.9876Z" fill="currentColor"/>
</g></symbol><symbol id="icon-pin" viewBox="0 0 16 22"><g fill="none">
<path fill-rule="evenodd" clip-rule="evenodd" d="M4.03617 1.03045C6.53316 -0.365998 9.60237 -0.34159 12.0759 1.09438C14.5252 2.55961 16.0138 5.17459 15.9999 7.98759C15.9429 10.7821 14.3467 13.409 12.3515 15.4397C11.1999 16.617 9.91162 17.6581 8.51301 18.5416C8.36897 18.6218 8.21119 18.6755 8.04746 18.7C7.88987 18.6935 7.73641 18.6487 7.60091 18.5696C5.46566 17.242 3.5924 15.5474 2.07125 13.5674C0.798392 11.9145 0.0752412 9.91761 1.3277e-06 7.84786C-0.00165107 5.02947 1.53917 2.4269 4.03617 1.03045ZM5.47908 9.01426C5.8991 10.0109 6.89053 10.661 7.99045 10.661C8.71103 10.666 9.4037 10.3882 9.91413 9.88952C10.4246 9.39084 10.7103 8.7127 10.7078 8.00622C10.7116 6.92784 10.052 5.95355 9.03693 5.53825C8.02184 5.12296 6.85152 5.34858 6.0724 6.10978C5.29328 6.87098 5.05905 8.0176 5.47908 9.01426Z" fill="#316DC2"/>
<path d="M13.7144 20.9C13.7144 21.5075 11.156 22 8.00005 22C4.84411 22 2.28573 21.5075 2.28573 20.9C2.28573 20.2925 4.84411 19.8 8.00005 19.8C11.156 19.8 13.7144 20.2925 13.7144 20.9Z" fill="#316DC2"/>
</g></symbol><symbol id="icon-plus" viewBox="0 0 20 20"><g fill="none">
<path id="Vector 27" d="M10 0V10M10 10V20M10 10H0M10 10H20" stroke="#316DC2"/>
</g></symbol><symbol id="icon-reddit" viewBox="0 0 20 22"><g fill="none">
<path d="M11.9453 0.5C11.304 0.5 10.7021 0.84161 10.3161 1.33425C9.93009 1.82688 9.71732 2.4274 9.56231 3.06027C9.31611 4.07791 9.24012 5.20702 9.22188 6.22466C7.41944 6.35051 5.78722 6.91147 4.43159 7.77808C3.88143 7.29264 3.21882 7.02295 2.58356 7.03014C1.86015 7.03733 1.17322 7.36455 0.662576 8.03699C-0.313112 9.32072 -0.200649 11.4207 0.930054 12.6685C0.860145 13.0533 0.808473 13.4488 0.808473 13.8479C0.808473 18.0767 4.92399 21.5 10 21.5C15.076 21.5 19.1915 18.0731 19.1915 13.8479C19.1915 13.4488 19.1399 13.0533 19.0699 12.6685C20.2006 11.4207 20.3131 9.32072 19.3374 8.03699C18.8268 7.36455 18.1399 7.03733 17.4164 7.03014C16.7812 7.02295 16.1186 7.29264 15.5684 7.77808C14.2189 6.91507 12.5958 6.35411 10.8024 6.22466C10.8268 5.28613 10.8906 4.31164 11.0699 3.57808C11.1824 3.11781 11.3161 2.78339 11.459 2.6C11.6018 2.41661 11.7052 2.3411 11.9453 2.3411C12.4651 2.3411 12.5319 2.51729 12.845 2.94521C13.0031 3.16096 13.1854 3.43065 13.4772 3.69315C13.769 3.95565 14.2006 4.18219 14.6687 4.18219V2.3411C14.538 2.3411 14.5137 2.3375 14.4256 2.25479C14.3374 2.17209 14.2158 1.98151 14.0365 1.73699C13.6778 1.24435 12.9818 0.5 11.9453 0.5ZM17.0031 0.672603C15.7933 0.672603 14.8146 1.83048 14.8146 3.26164C14.8146 4.69281 15.7933 5.85069 17.0031 5.85069C18.2128 5.85069 19.1915 4.69281 19.1915 3.26164C19.1915 1.83048 18.2128 0.672603 17.0031 0.672603ZM17.0031 1.59315C17.7812 1.59315 18.4134 2.3411 18.4134 3.26164C18.4134 4.18219 17.7812 4.93014 17.0031 4.93014C16.225 4.93014 15.5927 4.18219 15.5927 3.26164C15.5927 2.3411 16.225 1.59315 17.0031 1.59315ZM10 7.66301C14.307 7.66301 17.9514 10.5002 17.9514 13.8479C17.9514 17.1993 14.307 20.0329 10 20.0329C5.69299 20.0329 2.0486 17.1993 2.0486 13.8479C2.0486 10.5002 5.69299 7.66301 10 7.66301ZM2.60787 8.49726C2.82368 8.50086 3.0486 8.55839 3.26441 8.66986C2.48325 9.37106 1.86319 10.1765 1.44069 11.0863C1.1489 10.3743 1.22793 9.48613 1.58659 9.01507C1.84799 8.66986 2.20969 8.49366 2.60787 8.49726ZM17.3921 8.49726C17.7903 8.49366 18.152 8.66986 18.4134 9.01507C18.7721 9.48613 18.8511 10.3743 18.5593 11.0863C18.1368 10.1765 17.5167 9.37106 16.7356 8.66986C16.9514 8.55839 17.1763 8.50086 17.3921 8.49726ZM6.88753 10.7986C6.10941 10.7986 5.47719 11.5466 5.47719 12.4671C5.47719 13.3877 6.10941 14.1356 6.88753 14.1356C7.66564 14.1356 8.29786 13.3877 8.29786 12.4671C8.29786 11.5466 7.66564 10.7986 6.88753 10.7986ZM13.1125 10.7986C12.3344 10.7986 11.7021 11.5466 11.7021 12.4671C11.7021 13.3877 12.3344 14.1356 13.1125 14.1356C13.8906 14.1356 14.5228 13.3877 14.5228 12.4671C14.5228 11.5466 13.8906 10.7986 13.1125 10.7986ZM6.13372 16.4658C6.62917 17.6776 8.16109 18.8534 10 18.8534C11.8389 18.8534 13.3952 17.6776 13.8906 16.4658C12.9909 17.1526 11.5714 17.6164 10 17.6164C8.42857 17.6164 7.03342 17.1526 6.13372 16.4658Z" fill="currentColor"/>
</g></symbol><symbol id="icon-vk" viewBox="0 0 22 12"><g fill="none">
<path d="M21.8039 10.7032C21.7448 10.6086 21.379 9.84878 19.6189 8.28709C17.7762 6.65178 18.0238 6.91732 20.2432 4.0897C21.5949 2.36763 22.1353 1.31598 21.9662 0.866405C21.8053 0.437859 20.8111 0.550911 20.8111 0.550911L17.5053 0.569315C17.5053 0.569315 17.2606 0.537766 17.0777 0.641616C16.9003 0.744151 16.7862 0.980772 16.7862 0.980772C16.7862 0.980772 16.2623 2.31373 15.5637 3.44688C14.091 5.83806 13.501 5.96426 13.2604 5.81572C12.7007 5.46999 12.841 4.42491 12.841 3.6835C12.841 1.36594 13.2082 0.399737 12.1246 0.149971C11.7643 0.0671538 11.5003 0.0119424 10.5803 0.00274048C9.4005 -0.00909055 8.4008 0.00668415 7.83563 0.27091C7.45885 0.447061 7.16871 0.840114 7.3461 0.862462C7.56474 0.890068 8.05977 0.989974 8.32242 1.33176C8.66207 1.77214 8.64969 2.76331 8.64969 2.76331C8.64969 2.76331 8.84496 5.49102 8.19453 5.83018C7.74763 6.06285 7.13571 5.5883 5.82248 3.41796C5.15006 2.30716 4.64127 1.07805 4.64127 1.07805C4.64127 1.07805 4.54364 0.849316 4.369 0.727062C4.15724 0.578517 3.86022 0.531193 3.86022 0.531193L0.716735 0.549597C0.716735 0.549597 0.245075 0.562743 0.0718122 0.758612C-0.0821991 0.933448 0.0594363 1.29364 0.0594363 1.29364C0.0594363 1.29364 2.52087 6.79769 5.30682 9.57272C7.86313 12.1164 10.7646 11.9494 10.7646 11.9494H12.0792C12.0792 11.9494 12.4766 11.9074 12.6787 11.6984C12.8658 11.5064 12.8589 11.1463 12.8589 11.1463C12.8589 11.1463 12.8327 9.45967 13.6523 9.21122C14.4595 8.96671 15.4963 10.8413 16.595 11.563C17.4256 12.1085 18.0568 11.9889 18.0568 11.9889L20.9953 11.9494C20.9953 11.9494 22.5327 11.8587 21.8039 10.7032Z" fill="currentColor"/>
</g></symbol></svg>