<svg xmlns="http://www.w3.org/2000/svg" xmlns:xlink="http://www.w3.org/1999/xlink"><symbol id="icon-arrow-dw" viewBox="0 0 22 11"><g fill="none">
<path d="M21 1L11 10L1 1" stroke="#316DC2"/>
</g></symbol><symbol id="icon-arrow-tr" viewBox="0 0 22 22"><g fill="none">
<path id="Vector 21" d="M1 21L21 1M21 1H1.13245M21 1V20.8676" stroke="#316DC2"/>
</g></symbol><symbol id="icon-check" viewBox="0 0 22 20"><g fill="none">
<path id="Vector 28" d="M1 8.5L8.36842 19L21 1" stroke="#316DC2" stroke-linecap="round" stroke-linejoin="round"/>
</g></symbol><symbol id="icon-close" viewBox="0 0 20 20"><g fill="none">
<path id="Vector" d="M1 19L10 10M10 10L19 1M10 10L19 19M10 10L1 1" stroke="#316DC2" stroke-linecap="round" stroke-linejoin="round"/>
</g></symbol><symbol id="icon-logo" viewBox="0 0 52 52"><g fill="none">
<rect width="52" height="52" rx="26" fill="white"/>
<path d="M12 39.8701V33.633H12.6763L15.5115 38.8782L18.3318 33.633H19.0181V39.8657H18.3168V35.0536L15.747 39.8701H15.2711L12.7063 35.0536V39.8701H12Z" fill="#316DC2"/>
<path d="M30.2848 40C29.7805 40 29.3264 39.9278 28.9223 39.7834C28.5215 39.6362 28.1892 39.4283 27.9254 39.1597C27.6649 38.8912 27.4946 38.5721 27.4145 38.2025L28.1659 38.0942C28.2861 38.4985 28.5399 38.8161 28.9273 39.0471C29.3147 39.2752 29.7772 39.3893 30.3149 39.3893C30.6689 39.3893 30.9861 39.3416 31.2666 39.2464C31.5472 39.1482 31.7676 39.0096 31.9279 38.8305C32.0882 38.6515 32.1683 38.4393 32.1683 38.1938C32.1683 38.0321 32.1349 37.895 32.0681 37.7824C32.0013 37.6669 31.9128 37.5716 31.8026 37.4965C31.6924 37.4214 31.5722 37.3593 31.442 37.3103C31.3117 37.2583 31.1848 37.2164 31.0613 37.1846L29.2329 36.7125C29.0124 36.6577 28.8087 36.5884 28.6217 36.5046C28.4347 36.418 28.2711 36.3155 28.1308 36.1971C27.9939 36.0758 27.887 35.9343 27.8102 35.7726C27.7334 35.6109 27.695 35.4261 27.695 35.2182C27.695 34.8659 27.8019 34.5613 28.0156 34.3043C28.2293 34.0473 28.5215 33.8495 28.8922 33.7109C29.2629 33.5723 29.6854 33.5045 30.1596 33.5074C30.6405 33.5074 31.0696 33.581 31.447 33.7283C31.8277 33.8755 32.1416 34.0863 32.3887 34.3606C32.6359 34.6321 32.7995 34.954 32.8796 35.3265L32.1082 35.4478C32.0581 35.1764 31.9429 34.941 31.7626 34.7418C31.5822 34.5425 31.3518 34.3895 31.0713 34.2827C30.7941 34.1729 30.4885 34.1166 30.1546 34.1137C29.8306 34.1137 29.5418 34.1614 29.288 34.2567C29.0375 34.3491 28.8388 34.4761 28.6918 34.6378C28.5449 34.7995 28.4714 34.9843 28.4714 35.1922C28.4714 35.403 28.5382 35.5719 28.6718 35.699C28.8087 35.8261 28.9757 35.9257 29.1727 35.9979C29.3731 36.0701 29.5668 36.1292 29.7538 36.1754L31.1665 36.5349C31.3134 36.5696 31.4854 36.6201 31.6824 36.6865C31.8828 36.7501 32.0765 36.8425 32.2635 36.9637C32.4538 37.0821 32.6108 37.2381 32.7344 37.4315C32.8579 37.625 32.9197 37.8704 32.9197 38.1679C32.9197 38.4566 32.8529 38.715 32.7193 38.9432C32.5891 39.1713 32.4038 39.3633 32.1633 39.5192C31.9262 39.6751 31.6473 39.7935 31.3267 39.8744C31.0095 39.9581 30.6622 40 30.2848 40Z" fill="#316DC2"/>
<path fill-rule="evenodd" clip-rule="evenodd" d="M23.0087 33.633L20.5241 39.8701H21.2905L21.893 38.3584H25.0974L25.7037 39.8701H26.4701L23.9855 33.633H23.0087ZM24.8576 37.7607L23.49 34.3514L22.1312 37.7607H21.6311V38.3584H21.893L22.1312 37.7607H24.8576Z" fill="#316DC2"/>
<path d="M21.6311 37.7607V38.3584H21.893L22.1312 37.7607H21.6311Z" fill="#316DC2"/>
<path fill-rule="evenodd" clip-rule="evenodd" d="M36.5386 33.633L34.0539 39.8701H34.8204L35.4229 38.3584H38.6272L39.2336 39.8701H40L37.5154 33.633H36.5386ZM38.3875 37.7607L37.0199 34.3514L35.6611 37.7607H35.161V38.3584H35.4229L35.6611 37.7607H38.3875Z" fill="#316DC2"/>
<path d="M35.161 37.7607V38.3584H35.4229L35.6611 37.7607H35.161Z" fill="#316DC2"/>
<path d="M17.8125 17.476C17.2909 17.8535 16.9851 18.6529 17.5615 19.6087C18.1378 20.5646 26.372 27.0165 26.6739 27.1957C26.9758 27.375 27.2779 27.4048 28.0461 26.7775C28.8148 26.1502 35.2362 21.2497 35.4019 21.1023C35.6656 20.8678 35.7313 20.2958 35.4019 20.0268C35.4019 20.0268 27.6225 25.941 27.3677 26.1801C27.1132 26.4191 26.7169 26.0308 26.7913 25.5231C26.866 25.0152 26.921 24.9554 27.9091 24.1788C28.8972 23.4021 34.4993 19.0889 34.7535 18.8982C35.0414 18.6821 35.0483 18.3005 34.5768 17.963C33.9214 17.4938 26.8379 12.3763 26.601 12.1971C26.3634 12.0178 26.0345 11.8549 25.5406 12.2134C25.0466 12.5718 18.7709 16.7823 17.8125 17.476Z" fill="#316DC2"/>
<path d="M26.6739 27.8252C26.4757 27.7075 22.8629 24.8896 20.2387 22.6955V27.2702C20.2367 30.6096 29.4981 32.3938 32.5663 28.2887V23.9163C30.6815 25.3631 28.4767 27.0556 28.0461 27.407C27.2779 28.0342 26.9758 28.0044 26.6739 27.8252Z" fill="#316DC2"/>
<path d="M30.593 22.8091C30.593 22.8091 31.97 23.5124 32.068 26.3426L31.4009 26.1558L30.8671 27.3076C30.6413 24.2085 29.4116 23.7591 29.4116 23.7591L30.593 22.8091Z" fill="#98B8E6"/>
</g></symbol><symbol id="icon-menu" viewBox="0 0 22 12"><g fill="none">
<path id="Vector" d="M1 1H21M1 6H21M1 11H21" stroke="#316DC2" stroke-linecap="round"/>
</g></symbol><symbol id="icon-minus" viewBox="0 0 20 2"><g fill="none">
<path id="Vector 27" d="M0 1H10H20" stroke="#316DC2"/>
</g></symbol><symbol id="icon-ok" viewBox="0 0 14 22"><g fill="none">
<path d="M7 3.32798C8.32292 3.32798 9.39879 4.38262 9.39879 5.67944C9.39879 6.97235 8.32292 8.02699 7 8.02699C5.67708 8.02699 4.60121 6.97235 4.60121 5.67944C4.60121 4.38262 5.67708 3.32798 7 3.32798ZM7 11.355C10.1957 11.355 12.7938 8.8082 12.7938 5.67944C12.7938 2.54676 10.1957 0 7 0C3.80427 0 1.21023 2.54676 1.21023 5.67944C1.21023 8.8082 3.80427 11.355 7 11.355ZM9.343 15.9876C10.5225 15.722 11.6581 15.2649 12.7061 14.6204C13.499 14.1322 13.7381 13.1049 13.24 12.3276C12.738 11.5464 11.694 11.312 10.897 11.8042C8.52614 13.265 5.47386 13.265 3.09898 11.8042C2.30603 11.312 1.25805 11.5464 0.759964 12.3276C0.261876 13.1049 0.500958 14.1322 1.29391 14.6204C2.34189 15.2649 3.47753 15.722 4.657 15.9876L1.41744 19.1593C0.755978 19.8077 0.755978 20.8624 1.41744 21.5108C1.75215 21.835 2.1825 21.999 2.61683 21.999C3.05116 21.999 3.4855 21.835 3.82021 21.5108L7 18.3937L10.1838 21.5108C10.8452 22.1631 11.9171 22.1631 12.5826 21.5108C13.244 20.8624 13.244 19.8077 12.5826 19.1593L9.343 15.9876Z" fill="#316DC2"/>
</g></symbol><symbol id="icon-pin" viewBox="0 0 16 22"><g fill="none">
<path fill-rule="evenodd" clip-rule="evenodd" d="M4.03617 1.03045C6.53316 -0.365998 9.60237 -0.34159 12.0759 1.09438C14.5252 2.55961 16.0138 5.17459 15.9999 7.98759C15.9429 10.7821 14.3467 13.409 12.3515 15.4397C11.1999 16.617 9.91162 17.6581 8.51301 18.5416C8.36897 18.6218 8.21119 18.6755 8.04746 18.7C7.88987 18.6935 7.73641 18.6487 7.60091 18.5696C5.46566 17.242 3.5924 15.5474 2.07125 13.5674C0.798392 11.9145 0.0752412 9.91761 1.3277e-06 7.84786C-0.00165107 5.02947 1.53917 2.4269 4.03617 1.03045ZM5.47908 9.01426C5.8991 10.0109 6.89053 10.661 7.99045 10.661C8.71103 10.666 9.4037 10.3882 9.91413 9.88952C10.4246 9.39084 10.7103 8.7127 10.7078 8.00622C10.7116 6.92784 10.052 5.95355 9.03693 5.53825C8.02184 5.12296 6.85152 5.34858 6.0724 6.10978C5.29328 6.87098 5.05905 8.0176 5.47908 9.01426Z" fill="#316DC2"/>
<path d="M13.7144 20.9C13.7144 21.5075 11.156 22 8.00005 22C4.84411 22 2.28573 21.5075 2.28573 20.9C2.28573 20.2925 4.84411 19.8 8.00005 19.8C11.156 19.8 13.7144 20.2925 13.7144 20.9Z" fill="#316DC2"/>
</g></symbol><symbol id="icon-plus" viewBox="0 0 20 20"><g fill="none">
<path id="Vector 27" d="M10 0V10M10 10V20M10 10H0M10 10H20" stroke="#316DC2"/>
</g></symbol><symbol id="icon-reddit" viewBox="0 0 20 22"><g fill="none">
<path d="M11.9453 0.5C11.304 0.5 10.7021 0.84161 10.3161 1.33425C9.93009 1.82688 9.71732 2.4274 9.56231 3.06027C9.31611 4.07791 9.24012 5.20702 9.22188 6.22466C7.41944 6.35051 5.78722 6.91147 4.43159 7.77808C3.88143 7.29264 3.21882 7.02295 2.58356 7.03014C1.86015 7.03733 1.17322 7.36455 0.662576 8.03699C-0.313112 9.32072 -0.200649 11.4207 0.930054 12.6685C0.860145 13.0533 0.808473 13.4488 0.808473 13.8479C0.808473 18.0767 4.92399 21.5 10 21.5C15.076 21.5 19.1915 18.0731 19.1915 13.8479C19.1915 13.4488 19.1399 13.0533 19.0699 12.6685C20.2006 11.4207 20.3131 9.32072 19.3374 8.03699C18.8268 7.36455 18.1399 7.03733 17.4164 7.03014C16.7812 7.02295 16.1186 7.29264 15.5684 7.77808C14.2189 6.91507 12.5958 6.35411 10.8024 6.22466C10.8268 5.28613 10.8906 4.31164 11.0699 3.57808C11.1824 3.11781 11.3161 2.78339 11.459 2.6C11.6018 2.41661 11.7052 2.3411 11.9453 2.3411C12.4651 2.3411 12.5319 2.51729 12.845 2.94521C13.0031 3.16096 13.1854 3.43065 13.4772 3.69315C13.769 3.95565 14.2006 4.18219 14.6687 4.18219V2.3411C14.538 2.3411 14.5137 2.3375 14.4256 2.25479C14.3374 2.17209 14.2158 1.98151 14.0365 1.73699C13.6778 1.24435 12.9818 0.5 11.9453 0.5ZM17.0031 0.672603C15.7933 0.672603 14.8146 1.83048 14.8146 3.26164C14.8146 4.69281 15.7933 5.85069 17.0031 5.85069C18.2128 5.85069 19.1915 4.69281 19.1915 3.26164C19.1915 1.83048 18.2128 0.672603 17.0031 0.672603ZM17.0031 1.59315C17.7812 1.59315 18.4134 2.3411 18.4134 3.26164C18.4134 4.18219 17.7812 4.93014 17.0031 4.93014C16.225 4.93014 15.5927 4.18219 15.5927 3.26164C15.5927 2.3411 16.225 1.59315 17.0031 1.59315ZM10 7.66301C14.307 7.66301 17.9514 10.5002 17.9514 13.8479C17.9514 17.1993 14.307 20.0329 10 20.0329C5.69299 20.0329 2.0486 17.1993 2.0486 13.8479C2.0486 10.5002 5.69299 7.66301 10 7.66301ZM2.60787 8.49726C2.82368 8.50086 3.0486 8.55839 3.26441 8.66986C2.48325 9.37106 1.86319 10.1765 1.44069 11.0863C1.1489 10.3743 1.22793 9.48613 1.58659 9.01507C1.84799 8.66986 2.20969 8.49366 2.60787 8.49726ZM17.3921 8.49726C17.7903 8.49366 18.152 8.66986 18.4134 9.01507C18.7721 9.48613 18.8511 10.3743 18.5593 11.0863C18.1368 10.1765 17.5167 9.37106 16.7356 8.66986C16.9514 8.55839 17.1763 8.50086 17.3921 8.49726ZM6.88753 10.7986C6.10941 10.7986 5.47719 11.5466 5.47719 12.4671C5.47719 13.3877 6.10941 14.1356 6.88753 14.1356C7.66564 14.1356 8.29786 13.3877 8.29786 12.4671C8.29786 11.5466 7.66564 10.7986 6.88753 10.7986ZM13.1125 10.7986C12.3344 10.7986 11.7021 11.5466 11.7021 12.4671C11.7021 13.3877 12.3344 14.1356 13.1125 14.1356C13.8906 14.1356 14.5228 13.3877 14.5228 12.4671C14.5228 11.5466 13.8906 10.7986 13.1125 10.7986ZM6.13372 16.4658C6.62917 17.6776 8.16109 18.8534 10 18.8534C11.8389 18.8534 13.3952 17.6776 13.8906 16.4658C12.9909 17.1526 11.5714 17.6164 10 17.6164C8.42857 17.6164 7.03342 17.1526 6.13372 16.4658Z" fill="#316DC2"/>
</g></symbol><symbol id="icon-vk" viewBox="0 0 22 12"><g fill="none">
<path d="M21.8039 10.7032C21.7448 10.6086 21.379 9.84878 19.6189 8.28709C17.7762 6.65178 18.0238 6.91732 20.2432 4.0897C21.5949 2.36763 22.1353 1.31598 21.9662 0.866405C21.8053 0.437859 20.8111 0.550911 20.8111 0.550911L17.5053 0.569315C17.5053 0.569315 17.2606 0.537766 17.0777 0.641616C16.9003 0.744151 16.7862 0.980772 16.7862 0.980772C16.7862 0.980772 16.2623 2.31373 15.5637 3.44688C14.091 5.83806 13.501 5.96426 13.2604 5.81572C12.7007 5.46999 12.841 4.42491 12.841 3.6835C12.841 1.36594 13.2082 0.399737 12.1246 0.149971C11.7643 0.0671538 11.5003 0.0119424 10.5803 0.00274048C9.4005 -0.00909055 8.4008 0.00668415 7.83563 0.27091C7.45885 0.447061 7.16871 0.840114 7.3461 0.862462C7.56474 0.890068 8.05977 0.989974 8.32242 1.33176C8.66207 1.77214 8.64969 2.76331 8.64969 2.76331C8.64969 2.76331 8.84496 5.49102 8.19453 5.83018C7.74763 6.06285 7.13571 5.5883 5.82248 3.41796C5.15006 2.30716 4.64127 1.07805 4.64127 1.07805C4.64127 1.07805 4.54364 0.849316 4.369 0.727062C4.15724 0.578517 3.86022 0.531193 3.86022 0.531193L0.716735 0.549597C0.716735 0.549597 0.245075 0.562743 0.0718122 0.758612C-0.0821991 0.933448 0.0594363 1.29364 0.0594363 1.29364C0.0594363 1.29364 2.52087 6.79769 5.30682 9.57272C7.86313 12.1164 10.7646 11.9494 10.7646 11.9494H12.0792C12.0792 11.9494 12.4766 11.9074 12.6787 11.6984C12.8658 11.5064 12.8589 11.1463 12.8589 11.1463C12.8589 11.1463 12.8327 9.45967 13.6523 9.21122C14.4595 8.96671 15.4963 10.8413 16.595 11.563C17.4256 12.1085 18.0568 11.9889 18.0568 11.9889L20.9953 11.9494C20.9953 11.9494 22.5327 11.8587 21.8039 10.7032Z" fill="#316DC2"/>
</g></symbol></svg>